<svg width="19" height="18" viewBox="0 0 19 18" fill="none" xmlns="http://www.w3.org/2000/svg">
<path fill-rule="evenodd" clip-rule="evenodd" d="M13.7589 7.99275C13.7589 11.0054 11.3167 13.4476 8.30402 13.4476C5.29136 13.4476 2.84912 11.0054 2.84912 7.99275C2.84912 4.9801 5.29136 2.53786 8.30402 2.53786C11.3167 2.53786 13.7589 4.9801 13.7589 7.99275ZM13.2133 13.6031C11.9018 14.7516 10.1842 15.4476 8.30402 15.4476C4.18679 15.4476 0.849121 12.11 0.849121 7.99275C0.849121 3.87553 4.18679 0.537857 8.30402 0.537857C12.4212 0.537857 15.7589 3.87553 15.7589 7.99275C15.7589 9.50734 15.3072 10.9164 14.5312 12.0927L18.8677 16.4292L17.4535 17.8434L13.2133 13.6031Z" fill="#160F29"/>
<path fill-rule="evenodd" clip-rule="evenodd" d="M13.7589 7.99275C13.7589 11.0054 11.3167 13.4476 8.30402 13.4476C5.29136 13.4476 2.84912 11.0054 2.84912 7.99275C2.84912 4.9801 5.29136 2.53786 8.30402 2.53786C11.3167 2.53786 13.7589 4.9801 13.7589 7.99275ZM13.2133 13.6031C11.9018 14.7516 10.1842 15.4476 8.30402 15.4476C4.18679 15.4476 0.849121 12.11 0.849121 7.99275C0.849121 3.87553 4.18679 0.537857 8.30402 0.537857C12.4212 0.537857 15.7589 3.87553 15.7589 7.99275C15.7589 9.50734 15.3072 10.9164 14.5312 12.0927L18.8677 16.4292L17.4535 17.8434L13.2133 13.6031Z" fill="black" fill-opacity="0.2"/>
</svg>
