<svg width="14" height="22" viewBox="0 0 14 22" fill="none" xmlns="http://www.w3.org/2000/svg">
<path fill-rule="evenodd" clip-rule="evenodd" d="M0.100586 3.0016C0.100586 1.34474 1.44373 0.00160217 3.10059 0.00160217H10.7847C12.4415 0.00160217 13.7847 1.34475 13.7847 3.0016V7.65645V11V13.3895V15V19C13.7847 20.6569 12.4415 22 10.7847 22H3.10059C1.44373 22 0.100586 20.6569 0.100586 19V15V13.3895V11V7.65645V3.0016ZM2.10059 13.8293V15C2.10059 15.5523 2.5483 16 3.10059 16H10.7847C11.337 16 11.7847 15.5523 11.7847 15V13.8293C11.4719 13.9398 11.1353 14 10.7847 14H3.10059C2.74995 14 2.41336 13.9398 2.10059 13.8293ZM11.7847 17.8293C11.4719 17.9398 11.1353 18 10.7847 18H3.10059C2.74995 18 2.41336 17.9398 2.10059 17.8293V19C2.10059 19.5523 2.5483 20 3.10059 20H10.7847C11.337 20 11.7847 19.5523 11.7847 19V17.8293ZM11.7847 3.0016V7.65645V11C11.7847 11.5523 11.337 12 10.7847 12H3.10059C2.5483 12 2.10059 11.5523 2.10059 11V7.65645V3.0016C2.10059 2.44932 2.5483 2.0016 3.10059 2.0016H10.7847C11.337 2.0016 11.7847 2.44932 11.7847 3.0016Z" fill="#160F29"/>
<path fill-rule="evenodd" clip-rule="evenodd" d="M0.100586 3.0016C0.100586 1.34474 1.44373 0.00160217 3.10059 0.00160217H10.7847C12.4415 0.00160217 13.7847 1.34475 13.7847 3.0016V7.65645V11V13.3895V15V19C13.7847 20.6569 12.4415 22 10.7847 22H3.10059C1.44373 22 0.100586 20.6569 0.100586 19V15V13.3895V11V7.65645V3.0016ZM2.10059 13.8293V15C2.10059 15.5523 2.5483 16 3.10059 16H10.7847C11.337 16 11.7847 15.5523 11.7847 15V13.8293C11.4719 13.9398 11.1353 14 10.7847 14H3.10059C2.74995 14 2.41336 13.9398 2.10059 13.8293ZM11.7847 17.8293C11.4719 17.9398 11.1353 18 10.7847 18H3.10059C2.74995 18 2.41336 17.9398 2.10059 17.8293V19C2.10059 19.5523 2.5483 20 3.10059 20H10.7847C11.337 20 11.7847 19.5523 11.7847 19V17.8293ZM11.7847 3.0016V7.65645V11C11.7847 11.5523 11.337 12 10.7847 12H3.10059C2.5483 12 2.10059 11.5523 2.10059 11V7.65645V3.0016C2.10059 2.44932 2.5483 2.0016 3.10059 2.0016H10.7847C11.337 2.0016 11.7847 2.44932 11.7847 3.0016Z" fill="black" fill-opacity="0.2"/>
</svg>
